<svg xmlns="http://www.w3.org/2000/svg" viewBox="0 0 1200 675" font-family="Inter, system-ui, sans-serif">
  <defs>
    <linearGradient id="chartFill" x1="0" y1="0" x2="0" y2="1">
      <stop offset="0%" stop-color="#111111" stop-opacity="0.14"/>
      <stop offset="100%" stop-color="#111111" stop-opacity="0"/>
    </linearGradient>
  </defs>
  <rect width="1200" height="675" rx="24" fill="#ffffff"/>
  <rect x="0.75" y="0.75" width="1198.5" height="673.5" rx="23.25" fill="none" stroke="#e2e2e2" stroke-width="1.5"/>

  <!-- sidebar -->
  <path d="M0 24 A24 24 0 0 1 24 0 H220 V675 H24 A24 24 0 0 1 0 651 Z" fill="#fafafa"/>
  <line x1="220" y1="0" x2="220" y2="675" stroke="#ececec" stroke-width="1"/>
  <circle cx="40" cy="42" r="12" fill="#111111"/>
  <text x="62" y="47" fill="#111111" font-size="16" font-weight="700">Bright Tax</text>
  <g fill="#7a7a7a" font-size="13">
    <rect x="24" y="88" width="172" height="34" rx="8" fill="#efefef"/>
    <text x="44" y="110" fill="#111111">Overview</text>
    <text x="44" y="152">Filings</text>
    <text x="44" y="192">Deductions</text>
    <text x="44" y="232">Deadlines</text>
    <text x="44" y="272">Documents</text>
    <text x="44" y="312">Reports</text>
    <text x="44" y="620">Settings</text>
  </g>

  <!-- header -->
  <text x="256" y="52" fill="#111111" font-size="20" font-weight="600">Tax Season Overview</text>
  <text x="256" y="76" fill="#8a8a8a" font-size="13">Fiscal year 2026 · Updated 2 minutes ago</text>
  <rect x="1040" y="34" width="124" height="36" rx="18" fill="#111111"/>
  <text x="1062" y="57" fill="#ffffff" font-size="13" font-weight="600">Export</text>

  <!-- stat cards -->
  <g>
    <rect x="256" y="104" width="212" height="96" rx="14" fill="#fafafa" stroke="#e6e6e6"/>
    <text x="276" y="136" fill="#8a8a8a" font-size="12">Returns filed</text>
    <text x="276" y="172" fill="#111111" font-size="28" font-weight="700">1,248</text>
    <rect x="488" y="104" width="212" height="96" rx="14" fill="#fafafa" stroke="#e6e6e6"/>
    <text x="508" y="136" fill="#8a8a8a" font-size="12">Refunds secured</text>
    <text x="508" y="172" fill="#111111" font-size="28" font-weight="700">$4.2M</text>
    <rect x="720" y="104" width="212" height="96" rx="14" fill="#fafafa" stroke="#e6e6e6"/>
    <text x="740" y="136" fill="#8a8a8a" font-size="12">Client satisfaction</text>
    <text x="740" y="172" fill="#111111" font-size="28" font-weight="700">100%</text>
    <rect x="952" y="104" width="212" height="96" rx="14" fill="#fafafa" stroke="#e6e6e6"/>
    <text x="972" y="136" fill="#8a8a8a" font-size="12">Years of experience</text>
    <text x="972" y="172" fill="#111111" font-size="28" font-weight="700">35+</text>
  </g>

  <!-- line chart -->
  <rect x="256" y="228" width="628" height="304" rx="14" fill="#fafafa" stroke="#e6e6e6"/>
  <text x="280" y="262" fill="#111111" font-size="15" font-weight="600">Deductions captured</text>
  <text x="280" y="284" fill="#8a8a8a" font-size="12">Monthly, in thousands</text>
  <g stroke="#e9e9e9" stroke-width="1">
    <line x1="280" y1="330" x2="860" y2="330"/>
    <line x1="280" y1="380" x2="860" y2="380"/>
    <line x1="280" y1="430" x2="860" y2="430"/>
    <line x1="280" y1="480" x2="860" y2="480"/>
  </g>
  <path d="M280 470 L340 452 L400 460 L460 420 L520 428 L580 384 L640 396 L700 352 L760 340 L820 306 L860 312 L860 500 L280 500 Z" fill="url(#chartFill)"/>
  <path d="M280 470 L340 452 L400 460 L460 420 L520 428 L580 384 L640 396 L700 352 L760 340 L820 306 L860 312" fill="none" stroke="#111111" stroke-width="2.5" stroke-linecap="round"/>
  <circle cx="820" cy="306" r="5" fill="#111111"/>

  <!-- bar chart -->
  <rect x="904" y="228" width="260" height="304" rx="14" fill="#fafafa" stroke="#e6e6e6"/>
  <text x="928" y="262" fill="#111111" font-size="15" font-weight="600">By industry</text>
  <g>
    <rect x="928" y="292" width="150" height="12" rx="6" fill="#3d3d3d"/>
    <rect x="928" y="324" width="196" height="12" rx="6" fill="#111111"/>
    <rect x="928" y="356" width="120" height="12" rx="6" fill="#5c5c5c"/>
    <rect x="928" y="388" width="170" height="12" rx="6" fill="#767676"/>
    <rect x="928" y="420" width="96" height="12" rx="6" fill="#909090"/>
    <rect x="928" y="452" width="140" height="12" rx="6" fill="#ababab"/>
    <rect x="928" y="484" width="80" height="12" rx="6" fill="#c6c6c6"/>
  </g>

  <!-- table -->
  <rect x="256" y="556" width="908" height="92" rx="14" fill="#fafafa" stroke="#e6e6e6"/>
  <g fill="#8a8a8a" font-size="12">
    <text x="280" y="588">CLIENT</text>
    <text x="560" y="588">STATUS</text>
    <text x="760" y="588">DEADLINE</text>
    <text x="960" y="588">REFUND</text>
  </g>
  <g fill="#111111" font-size="13">
    <text x="280" y="620">Alexandre Restaurant Group</text>
    <text x="560" y="620">Filed ✓</text>
    <text x="760" y="620">Apr 15, 2026</text>
    <text x="960" y="620">$18,420</text>
  </g>
</svg>
